<svg fill="none" height="20" viewBox="0 0 20 20" width="20" xmlns="http://www.w3.org/2000/svg"><g fill="#212121"><path d="m14.6907 11.5031c.9993 0 1.8093.81 1.8093 1.8093v.6895h-.0053c-.034.7794-.2477 1.7569-1.1229 2.5555-.956.8723-2.6063 1.4426-5.3718 1.4426-2.76554 0-4.41577-.5703-5.3718-1.4426-.87523-.7986-1.08889-1.7761-1.12287-2.5555h-.00533v-.6895c0-.9993.81005-1.8093 1.8093-1.8093z"/><path d="m6.5 3c-.82843 0-1.5.67157-1.5 1.5v4c0 .82843.67157 1.5 1.5 1.5h7c.8284 0 1.5-.67157 1.5-1.5v-4c0-.82843-.6716-1.5-1.5-1.5h-3s0-.19141 0-.5-.2239-.5-.5-.5c-.27614 0-.5.23047-.5.5v.5zm.5 3.5c0-.55229.44772-1 1-1s1 .44771 1 1c0 .55228-.44772 1-1 1s-1-.44772-1-1zm4 0c0-.55229.4477-1 1-1s1 .44771 1 1c0 .55228-.4477 1-1 1s-1-.44772-1-1z"/></g></svg>