<svg height="100" viewBox="0 0 100 100" width="100" xmlns="http://www.w3.org/2000/svg"><path d="m77.7336063 51.4795079h-5.9672131v26.1885246c.0145778.3455615-.1180462.6811003-.3649451.9233114-.246899.242211-.5849183.3683791-.9301369.3471804h-11.9262295c-.641241-.0771423-1.1035122-.6522514-1.0409836-1.295082v-20.1967212h-14.5163934v20.2213114c.0488505.6309084-.4051996 1.189462-1.0327869 1.2704918h-11.9262295c-.3497182.0218468-.6919742-.1075676-.9397443-.3553378-.2477701-.2477701-.3771845-.590026-.3553377-.9397442v-26.1639344h-5.9672131c-.5163935 0-1.0409836-.2622951-1.0409836-.7786885-.2622951-.5163935-.2622951-1.0409836.262295-1.2950819l27.4836066-27.4836066c.5163934-.5163935 1.295082-.5163935 1.5573771 0l27.4836065 27.5081967c.5163934.262295.5163934.7786885.2622951 1.2950819-.2540983.5163935-.5163935.7786886-1.0409836.7786886z" fill="#fff" fill-rule="evenodd"/></svg>